<?xml version="1.0" encoding="utf-8"?>
<!DOCTYPE svg PUBLIC "-//W3C//DTD SVG 1.1//EN" "http://www.w3.org/Graphics/SVG/1.1/DTD/svg11.dtd">
<svg version="1.1" id="Layer_1" xmlns="http://www.w3.org/2000/svg" xmlns:xlink="http://www.w3.org/1999/xlink" x="0px" y="0px"
	 viewBox="0 0 2914.7695 1618.0961" enable-background="new 0 0 2914.7695 1618.0961" xml:space="preserve">
<g>
	<path d="M464.3677,1022.148c-47.3633,29.0137-65.2898,60.2874-38.1125,96.6177c25.3689,33.9127,60.8181,42.5571,105.0329,29.7311
		c115.2889-33.444,110.9546-185.554,42.1451-243.5917c-35.8478-30.236-75.919-51.0944-125.0738-53.8078
		c-131.7555-7.2733-271.3526,70.5749-317.3018,179.3185c-57.3677,135.7664-31.9,285.181,64.5562,370.4677
		c92.0761,81.4139,198.6449,111.6244,318.7851,81.2029c101.8561-25.7916,196.2444-69.2349,285.8167-127.7158
		c-38.4488-110.5701-37.5417-215.5242,16.8348-316.6542c85.8917-159.7426,224.0239-236.8091,401.1607-241.6221
		c181.3954-4.9287,340.8286,64.7399,489.0685,162.8992c61.165,40.5013,120.4293,83.8734,185.097,129.1151
		c52.321-67.3593,72.8732-144.506,83.2126-234.4776c-76.339,4.3061-129.887,49.4619-191.7642,80.1228
		c-60.8315-33.6447-119.507-71.6539-181.505-96.035c-4.4006-14.6102,1.2354-21.9725,8.2552-26.2748
		c126.0477-77.2503,254.7697-150.3171,401.8947-178.1908c200.6259-38.01,392.2413-6.2632,573.1976,88.2512
		c184.0706,96.1407,292.2249,248.9335,310.8525,454.0643c22.9009,252.1848-158.9917,410.9989-380.7749,430.7399
		c-190.1462,16.9247-365.6816-45.1681-514.8588-169.6768c-11.373-9.4924-26.3949-17.1768-28.8256-41.3376
		c39.2438-38.729,86.8586-76.1355,112.1777-137.2142c74.2249,52.252,149.8398,90.1366,229.7578,119.6105
		c59.5178,21.9507,121.4854,25.9901,182.8364,18.7711c155.5051-18.2986,201.6208-143.9128,158.6682-305.0593
		c-39.2007-147.0724-151.334-223.7523-291.2507-262.459c-49.0532-13.5702-100.9346-16.9174-159.3594-26.1741
		c-65.9004,431.1261-293.5173,713.1169-734.9235,783.6473c-168.9595,26.9974-339.4895,19.4932-508.6627-70.3757
		c81.7009-42.5524,149.3864-78.1541,217.4352-113.0466c22.1367-11.3508,43.7021,1.7295,65.3535,4.5948
		c195.3243,25.8499,363.3048-32.6865,516.8855-161.9481c-54.9354-67.2341-119.5557-110.6348-188.0055-148.2476
		c-16.5453-9.0916-35.7601,5.2289-52.0111,14.6284c-80.1908,46.3823-159.8572,93.7119-233.8181,149.6879
		C1073.442,1423.4459,834.2,1530.043,574.091,1590.231c-159.4086,36.8864-305.5981,10.4576-432.7933-99.4032
		C36.7087,1400.4926,8.877,1283.4866,17.8837,1152.5402c12.17-176.9363,162.2095-342.5666,356.1406-352.136
		c151.96-7.4983,253.2896,40.4713,290.1038,194.1238c15.2969,63.8445-15.033,134.252-67.2053,166.2479
		c-57.9624,35.547-125.6844,32.4717-172.9738-8.5015c-26.4323-22.902-40.7298-51.557-31.406-86.8104
		C399.5403,1039.0074,415.8847,1021.0563,464.3677,1022.148z M1340.5979,993.5643
		c-118.0446-32.3071-223.8715-26.194-312.8452,61.3585c-55.0222,54.1432-80.7305,117.5358-50.473,203.1229
		C1098.395,1170.7205,1228.1183,1101.6301,1340.5979,993.5643z"/>
	<path d="M2133.4248,550.8446c-80.3975,7.4186-155.4998,10.6838-228.1522,39.3383
		c-44.8468-35.1044-90.3745-67.5778-144.1716-87.1335c-64.1891-23.3332-125.2098-26.3801-188.8595,4.2945
		c-79.7437,38.4306-159.3702,80.1976-252.002,78.1028c-13.6241-0.308-27.8752,0.3907-40.7028-3.3079
		c-35.3984-10.2067-65.8424-5.7715-94.8337,19.0201c-38.9802,33.3336-85.103,30.7725-127.9393,18.199
		c-38.3025,15.1926-20.7839,49.4742-33.2362,78.5605c-22.9928-30.8466-40.291-60.5781-50.3671-93.0203
		c-14.0591-45.2659,12.9859-68.7895,52.6987-77.0652c35.8459-7.47,69.6277-13.9551,93.0781-46.5488
		c8.9606-12.454,26.6392-16.1475,42.4261-14.4583c52.2137,5.5863,84.7272-23.9491,107.7412-64.0372
		c21.8186-38.0062,52.2063-53.2714,94.4497-60.0313c116.937-18.7125,208.9702-90.9089,306.4851-150.5412
		c90.5187-55.354,174.9146-119.4315,260.3479-183.1682c-80.0995,115.7858-189.23,201.9216-306.9813,296.3491
		C1840.8757,295.7284,2001.8158,385.6817,2133.4248,550.8446z M1401.103,396.7091c-68.575-25.3277-110.8954,2.1682-108.1515,70.3451
		C1336.9293,454.9362,1373.3685,434.6046,1401.103,396.7091z"/>
</g>
</svg>
